<?xml version="1.0" encoding="utf-8"?>
<!-- Generator: Adobe Illustrator 22.1.0, SVG Export Plug-In . SVG Version: 6.00 Build 0)  -->
<svg version="1.1" id="Layer_1" xmlns="http://www.w3.org/2000/svg" xmlns:xlink="http://www.w3.org/1999/xlink" x="0px" y="0px"
	 viewBox="0 0 250.7 250.7" style="enable-background:new 0 0 250.7 250.7;" xml:space="preserve">
<style type="text/css">
	.st0{fill:#1B4855;}
	.st1{fill:#FFFFFF;}
	.st2{fill:#1DAA58;}
</style>
<title>Asset 2</title>
<g id="Layer_2_1_">
	<g id="Layer_1-2">
		<path class="st0" d="M218.9,0h-187C14.3,0,0,14.3,0,31.9v187c0,17.6,14.3,31.8,31.9,31.9h187c17.6,0,31.8-14.3,31.9-31.9v-187
			C250.7,14.3,236.4,0.1,218.9,0"/>
		<path class="st1" d="M147.4,92.4c-4.8,2.4-9.1,5.6-12.8,9.5l-0.1,0.1l-0.1,0.1l-6,6.1l16.8,17.1l-16.8,17.3l-2,2.1l-2,2.1l-5.9,6
			c-3.7,4-8.1,7.4-12.9,10c-0.9,0.5-1.8,0.9-2.8,1.3s-1.9,0.8-2.9,1.1c-3.1,1.1-6.3,1.6-9.5,1.6c-22.9-0.4-41.2-19.2-40.8-42.1
			c0.3-22.4,18.4-40.5,40.8-40.8c3.3,0,6.5,0.6,9.6,1.7l8.3-8.5c3.4-3.7,7-7,11-10c-7.8-4.8-17.7-8.9-28.6-8.9
			c-37.2-0.5-67.7,29.3-68.1,66.5c-0.5,37.2,29.3,67.7,66.5,68.1c0.5,0,1.1,0,1.6,0c10.9,0,20.8-4.2,28.6-9c0.9-0.5,1.8-1.1,2.6-1.6
			s1.7-1.2,2.5-1.8c4.3-3.1,8.3-6.6,11.9-10.5l6.9-7.1l2.1-2.2l2.1-2.2l32.3-33.1L147.4,92.4z"/>
		<path class="st2" d="M101.3,158.4c4.8-2.4,9.2-5.6,12.8-9.5l0.1-0.1l0.1-0.1l6-6.1l-16.8-17.1l16.8-17.3l2-2.1l2-2.1l5.9-6
			c3.7-4,8.1-7.4,13-10c0.9-0.5,1.8-0.9,2.7-1.3s1.9-0.8,2.9-1.1c3.1-1.1,6.3-1.6,9.5-1.7c22.9,0,41.5,18.6,41.5,41.5
			s-18.6,41.5-41.5,41.5c-3.3,0-6.5-0.6-9.6-1.7l-8.3,8.5c-3.4,3.7-7,7-11,10c7.8,4.8,17.7,9,28.6,9c37.2,0.5,67.7-29.3,68.1-66.5
			c0.5-37.2-29.3-67.7-66.5-68.1c-0.5,0-1.1,0-1.6,0c-10.9,0-20.8,4.2-28.6,8.9c-0.9,0.6-1.8,1.1-2.6,1.7s-1.7,1.2-2.5,1.8
			c-4.3,3.1-8.4,6.6-12,10.5l-6.9,7l-2.1,2.2l-2.1,2.2L69,125.5L101.3,158.4z"/>
	</g>
</g>
</svg>
